<?xml version="1.0" encoding="utf-8"?>
<!-- Generator: Adobe Illustrator 19.1.0, SVG Export Plug-In . SVG Version: 6.00 Build 0)  -->
<svg version="1.1" id="Layer_1" xmlns="http://www.w3.org/2000/svg" xmlns:xlink="http://www.w3.org/1999/xlink" x="0px" y="0px"
	 width="70.3px" height="24px" viewBox="-615 389 70.3 24" style="enable-background:new -615 389 70.3 24;" xml:space="preserve">
<style type="text/css">
	.st0{fill:#A0905D;}
</style>
<path class="st0" d="M-570.7,397.5l-5.5-0.5c-0.3,0-0.6-0.3-0.8-0.6l-2-4.8c-0.3-0.8-1.4-0.8-1.8,0l-2,4.8c-0.1,0.3-0.4,0.6-0.8,0.6
	l-5.5,0.5c-0.8,0.1-1.2,1.1-0.5,1.7l4.1,3.6c0.3,0.2,0.4,0.6,0.3,0.9l-1.2,5.1c-0.2,0.8,0.7,1.5,1.4,1l4.6-2.7c0.3-0.2,0.7-0.2,1,0
	l4.6,2.7c0.7,0.4,1.6-0.2,1.4-1l-1.2-5.1c-0.1-0.3,0-0.7,0.3-0.9l4.1-3.6C-569.5,398.6-569.9,397.6-570.7,397.5L-570.7,397.5z
	 M-603.8,392.1l1.9,4.7c0.3,0.7,0.9,1.1,1.6,1.2l5.4,0.5l-4.1,3.6c-0.5,0.5-0.8,1.2-0.6,1.9l1.2,5l-4.5-2.7c-0.3-0.2-0.6-0.3-1-0.3
	s-0.7,0.1-1,0.3l-4.5,2.6l1.2-5c0.2-0.7-0.1-1.4-0.6-1.9l-4.1-3.6l5.4-0.5c0.7-0.1,1.4-0.5,1.6-1.2L-603.8,392.1 M-603.8,391
	c-0.4,0-0.7,0.2-0.9,0.6l-2,4.8c-0.1,0.3-0.4,0.6-0.8,0.6l-5.5,0.5c-0.8,0.1-1.1,1.1-0.5,1.7l4.1,3.6c0.3,0.2,0.4,0.6,0.3,0.9
	l-1.2,5.1c-0.2,0.6,0.3,1.2,0.9,1.2c0.2,0,0.3,0,0.5-0.1l4.6-2.7c0.1-0.1,0.3-0.1,0.5-0.1s0.3,0,0.5,0.1l4.6,2.7
	c0.2,0.1,0.3,0.1,0.5,0.1c0.6,0,1.1-0.5,0.9-1.2l-1.2-5.1c-0.1-0.3,0-0.7,0.3-0.9l4.1-3.6c0.6-0.6,0.3-1.6-0.6-1.7l-5.5-0.5
	c-0.3,0-0.6-0.3-0.8-0.6l-2-4.8C-603.1,391.2-603.5,391-603.8,391L-603.8,391z M-556.7,392.1l1.9,4.7c0.3,0.7,0.9,1.1,1.6,1.2
	l5.4,0.5l-4.1,3.6c-0.5,0.5-0.8,1.2-0.6,1.9l1.2,5l-4.5-2.7c-0.5-0.3-0.9-0.3-0.9-0.3V392.1 M-556.7,391c-0.4,0-0.7,0.2-0.9,0.6
	l-2,4.8c-0.1,0.3-0.4,0.6-0.8,0.6l-5.5,0.5c-0.8,0.1-1.1,1.1-0.5,1.7l4.1,3.6c0.3,0.2,0.4,0.6,0.3,0.9l-1.2,5.1
	c-0.2,0.6,0.3,1.2,0.9,1.2c0.2,0,0.3,0,0.5-0.1l4.6-2.7c0.1-0.1,0.3-0.1,0.5-0.1s0.3,0,0.5,0.1l4.6,2.7c0.2,0.1,0.3,0.1,0.5,0.1
	c0.6,0,1.1-0.5,0.9-1.2l-1.2-5.1c-0.1-0.3,0-0.7,0.3-0.9l4.1-3.6c0.6-0.6,0.3-1.6-0.6-1.7l-5.5-0.5c-0.3,0-0.6-0.3-0.8-0.6l-2-4.8
	C-556,391.2-556.4,391-556.7,391L-556.7,391z"/>
</svg>
